ply
format ascii 1.0
comment Created by Blender 2.93.5 - www.blender.org
element vertex 390
property float x
property float y
property float z
property float nx
property float ny
property float nz
property float s
property float t
element face 288
property list uchar uint vertex_indices
end_header
-5.000000 0.500000 2.825212 -1.000000 -0.000000 0.000000 0.562500 0.187500
-5.000000 0.500000 3.325212 -1.000000 -0.000000 0.000000 0.625000 0.187500
-5.000000 1.000000 3.325212 -1.000000 -0.000000 0.000000 0.625000 0.250000
-5.000000 1.000000 2.825212 -1.000000 -0.000000 0.000000 0.562500 0.250000
4.375000 1.000000 2.825212 0.000000 1.000000 0.000000 0.562500 0.484375
4.375000 1.000000 3.325212 0.000000 1.000000 0.000000 0.625000 0.484375
5.000000 1.000000 3.325212 0.000000 1.000000 0.000000 0.625000 0.500000
5.000000 1.000000 2.825212 0.000000 1.000000 0.000000 0.562500 0.500000
5.000000 -0.500000 2.825212 1.000000 -0.000000 0.000000 0.562500 0.687500
5.000000 -0.500000 3.325212 1.000000 -0.000000 0.000000 0.625000 0.687500
5.000000 -1.000000 3.325212 1.000000 -0.000000 0.000000 0.625000 0.750000
5.000000 -1.000000 2.825212 1.000000 -0.000000 0.000000 0.562500 0.750000
-4.375000 -1.000000 2.825212 0.000000 -1.000000 0.000000 0.562500 0.984375
-4.375000 -1.000000 3.325212 0.000000 -1.000000 0.000000 0.625000 0.984375
-5.000000 -1.000000 3.325212 0.000000 -1.000000 0.000000 0.625000 1.000000
-5.000000 -1.000000 2.825212 0.000000 -1.000000 0.000000 0.562500 1.000000
4.375000 -0.500000 1.325212 0.000000 0.000000 -1.000000 0.359375 0.687500
5.000000 -0.500000 1.325212 0.000000 0.000000 -1.000000 0.375000 0.687500
5.000000 -1.000000 1.325212 0.000000 0.000000 -1.000000 0.375000 0.750000
4.375000 -1.000000 1.325212 0.000000 0.000000 -1.000000 0.359375 0.750000
-4.375000 -0.500000 3.325212 0.000000 -0.000000 1.000000 0.859375 0.687500
-5.000000 -0.500000 3.325212 0.000000 -0.000000 1.000000 0.875000 0.687500
-5.000000 -1.000000 3.325212 0.000000 -0.000000 1.000000 0.875000 0.750000
-4.375000 -1.000000 3.325212 0.000000 -0.000000 1.000000 0.859375 0.750000
0.625000 -0.500000 3.325212 0.000000 -0.000000 1.000000 0.734375 0.687500
0.000000 -0.500000 3.325212 0.000000 -0.000000 1.000000 0.750000 0.687500
0.000000 -1.000000 3.325212 0.000000 -0.000000 1.000000 0.750000 0.750000
0.625000 -1.000000 3.325212 0.000000 -0.000000 1.000000 0.734375 0.750000
0.625000 0.500000 3.325212 0.000000 -0.000000 1.000000 0.734375 0.562500
0.000000 0.500000 3.325212 0.000000 -0.000000 1.000000 0.750000 0.562500
0.000000 0.000000 3.325212 0.000000 -0.000000 1.000000 0.750000 0.625000
0.625000 0.000000 3.325212 0.000000 -0.000000 1.000000 0.734375 0.625000
-4.375000 0.500000 3.325212 0.000000 -0.000000 1.000000 0.859375 0.562500
-5.000000 0.500000 3.325212 0.000000 -0.000000 1.000000 0.875000 0.562500
-5.000000 0.000000 3.325212 0.000000 -0.000000 1.000000 0.875000 0.625000
-4.375000 0.000000 3.325212 0.000000 -0.000000 1.000000 0.859375 0.625000
-0.625000 -0.500000 1.325212 0.000000 0.000000 -1.000000 0.234375 0.687500
0.000000 -0.500000 1.325212 0.000000 0.000000 -1.000000 0.250000 0.687500
0.000000 -1.000000 1.325212 0.000000 0.000000 -1.000000 0.250000 0.750000
-0.625000 -1.000000 1.325212 0.000000 0.000000 -1.000000 0.234375 0.750000
-0.625000 0.500000 1.325212 0.000000 0.000000 -1.000000 0.234375 0.562500
0.000000 0.500000 1.325212 0.000000 0.000000 -1.000000 0.250000 0.562500
0.000000 0.000000 1.325212 0.000000 0.000000 -1.000000 0.250000 0.625000
-0.625000 0.000000 1.325212 0.000000 0.000000 -1.000000 0.234375 0.625000
4.375000 0.500000 1.325212 0.000000 0.000000 -1.000000 0.359375 0.562500
5.000000 0.500000 1.325212 0.000000 0.000000 -1.000000 0.375000 0.562500
5.000000 0.000000 1.325212 0.000000 0.000000 -1.000000 0.375000 0.625000
4.375000 0.000000 1.325212 0.000000 0.000000 -1.000000 0.359375 0.625000
-4.375000 -1.000000 1.825212 0.000000 -1.000000 0.000000 0.437500 0.984375
-4.375000 -1.000000 2.325212 0.000000 -1.000000 0.000000 0.500000 0.984375
-5.000000 -1.000000 2.325212 0.000000 -1.000000 0.000000 0.500000 1.000000
-5.000000 -1.000000 1.825212 0.000000 -1.000000 0.000000 0.437500 1.000000
0.625000 -1.000000 1.825212 0.000000 -1.000000 0.000000 0.437500 0.859375
0.625000 -1.000000 2.325212 0.000000 -1.000000 0.000000 0.500000 0.859375
0.000000 -1.000000 2.325212 0.000000 -1.000000 0.000000 0.500000 0.875000
0.000000 -1.000000 1.825212 0.000000 -1.000000 0.000000 0.437500 0.875000
0.625000 -1.000000 2.825212 0.000000 -1.000000 0.000000 0.562500 0.859375
0.625000 -1.000000 3.325212 0.000000 -1.000000 0.000000 0.625000 0.859375
0.000000 -1.000000 3.325212 0.000000 -1.000000 0.000000 0.625000 0.875000
0.000000 -1.000000 2.825212 0.000000 -1.000000 0.000000 0.562500 0.875000
5.000000 -0.500000 1.825212 1.000000 -0.000000 0.000000 0.437500 0.687500
5.000000 -0.500000 2.325212 1.000000 -0.000000 0.000000 0.500000 0.687500
5.000000 -1.000000 2.325212 1.000000 -0.000000 0.000000 0.500000 0.750000
5.000000 -1.000000 1.825212 1.000000 -0.000000 0.000000 0.437500 0.750000
5.000000 0.500000 1.825212 1.000000 -0.000000 0.000000 0.437500 0.562500
5.000000 0.500000 2.325212 1.000000 -0.000000 0.000000 0.500000 0.562500
5.000000 0.000000 2.325212 1.000000 -0.000000 0.000000 0.500000 0.625000
5.000000 0.000000 1.825212 1.000000 -0.000000 0.000000 0.437500 0.625000
5.000000 0.500000 2.825212 1.000000 -0.000000 0.000000 0.562500 0.562500
5.000000 0.500000 3.325212 1.000000 -0.000000 0.000000 0.625000 0.562500
5.000000 0.000000 3.325212 1.000000 -0.000000 0.000000 0.625000 0.625000
5.000000 0.000000 2.825212 1.000000 -0.000000 0.000000 0.562500 0.625000
4.375000 1.000000 1.825212 0.000000 1.000000 0.000000 0.437500 0.484375
4.375000 1.000000 2.325212 0.000000 1.000000 0.000000 0.500000 0.484375
5.000000 1.000000 2.325212 0.000000 1.000000 0.000000 0.500000 0.500000
5.000000 1.000000 1.825212 0.000000 1.000000 0.000000 0.437500 0.500000
-0.625000 1.000000 1.825212 0.000000 1.000000 0.000000 0.437500 0.359375
-0.625000 1.000000 2.325212 0.000000 1.000000 0.000000 0.500000 0.359375
0.000000 1.000000 2.325212 0.000000 1.000000 0.000000 0.500000 0.375000
0.000000 1.000000 1.825212 0.000000 1.000000 0.000000 0.437500 0.375000
-0.625000 1.000000 2.825212 0.000000 1.000000 0.000000 0.562500 0.359375
-0.625000 1.000000 3.325212 0.000000 1.000000 0.000000 0.625000 0.359375
0.000000 1.000000 3.325212 0.000000 1.000000 0.000000 0.625000 0.375000
0.000000 1.000000 2.825212 0.000000 1.000000 0.000000 0.562500 0.375000
-5.000000 0.500000 1.825212 -1.000000 -0.000000 0.000000 0.437500 0.187500
-5.000000 0.500000 2.325212 -1.000000 -0.000000 0.000000 0.500000 0.187500
-5.000000 1.000000 2.325212 -1.000000 -0.000000 0.000000 0.500000 0.250000
-5.000000 1.000000 1.825212 -1.000000 -0.000000 0.000000 0.437500 0.250000
-5.000000 -0.500000 1.825212 -1.000000 -0.000000 0.000000 0.437500 0.062500
-5.000000 -0.500000 2.325212 -1.000000 -0.000000 0.000000 0.500000 0.062500
-5.000000 0.000000 2.325212 -1.000000 -0.000000 0.000000 0.500000 0.125000
-5.000000 0.000000 1.825212 -1.000000 -0.000000 0.000000 0.437500 0.125000
-5.000000 -0.500000 2.825212 -1.000000 -0.000000 0.000000 0.562500 0.062500
-5.000000 -0.500000 3.325212 -1.000000 -0.000000 0.000000 0.625000 0.062500
-5.000000 0.000000 3.325212 -1.000000 -0.000000 0.000000 0.625000 0.125000
-5.000000 0.000000 2.825212 -1.000000 -0.000000 0.000000 0.562500 0.125000
-5.000000 -1.000000 2.325212 -1.000000 -0.000000 0.000000 0.500000 0.000000
-5.000000 -1.000000 2.825212 -1.000000 -0.000000 0.000000 0.562500 0.000000
-5.000000 -1.000000 3.325212 -1.000000 -0.000000 0.000000 0.625000 0.000000
-5.000000 -0.500000 1.325212 -1.000000 -0.000000 0.000000 0.375000 0.062500
-5.000000 0.000000 1.325212 -1.000000 -0.000000 0.000000 0.375000 0.125000
-5.000000 -1.000000 1.325212 -1.000000 -0.000000 0.000000 0.375000 0.000000
-5.000000 -1.000000 1.825212 -1.000000 -0.000000 0.000000 0.437500 0.000000
-5.000000 0.500000 1.325212 -1.000000 -0.000000 0.000000 0.375000 0.187500
-5.000000 1.000000 1.325212 -1.000000 -0.000000 0.000000 0.375000 0.250000
-3.125000 1.000000 2.325212 0.000000 1.000000 0.000000 0.500000 0.296875
-3.125000 1.000000 2.825212 0.000000 1.000000 0.000000 0.562500 0.296875
-2.500000 1.000000 2.825212 0.000000 1.000000 0.000000 0.562500 0.312500
-2.500000 1.000000 2.325212 0.000000 1.000000 0.000000 0.500000 0.312500
-3.125000 1.000000 3.325212 0.000000 1.000000 0.000000 0.625000 0.296875
-2.500000 1.000000 3.325212 0.000000 1.000000 0.000000 0.625000 0.312500
-0.625000 1.000000 1.325212 0.000000 1.000000 0.000000 0.375000 0.359375
0.000000 1.000000 1.325212 0.000000 1.000000 0.000000 0.375000 0.375000
-3.125000 1.000000 1.325212 0.000000 1.000000 0.000000 0.375000 0.296875
-3.125000 1.000000 1.825212 0.000000 1.000000 0.000000 0.437500 0.296875
-2.500000 1.000000 1.825212 0.000000 1.000000 0.000000 0.437500 0.312500
-2.500000 1.000000 1.325212 0.000000 1.000000 0.000000 0.375000 0.312500
4.375000 1.000000 1.325212 0.000000 1.000000 0.000000 0.375000 0.484375
5.000000 1.000000 1.325212 0.000000 1.000000 0.000000 0.375000 0.500000
1.875000 1.000000 1.325212 0.000000 1.000000 0.000000 0.375000 0.421875
1.875000 1.000000 1.825212 0.000000 1.000000 0.000000 0.437500 0.421875
2.500000 1.000000 1.825212 0.000000 1.000000 0.000000 0.437500 0.437500
2.500000 1.000000 1.325212 0.000000 1.000000 0.000000 0.375000 0.437500
1.875000 1.000000 2.325212 0.000000 1.000000 0.000000 0.500000 0.421875
2.500000 1.000000 2.325212 0.000000 1.000000 0.000000 0.500000 0.437500
5.000000 1.000000 2.325212 1.000000 -0.000000 0.000000 0.500000 0.500000
5.000000 1.000000 2.825212 1.000000 -0.000000 0.000000 0.562500 0.500000
5.000000 1.000000 3.325212 1.000000 -0.000000 0.000000 0.625000 0.500000
5.000000 0.500000 1.325212 1.000000 -0.000000 0.000000 0.375000 0.562500
5.000000 0.000000 1.325212 1.000000 -0.000000 0.000000 0.375000 0.625000
5.000000 1.000000 1.325212 1.000000 -0.000000 0.000000 0.375000 0.500000
5.000000 1.000000 1.825212 1.000000 -0.000000 0.000000 0.437500 0.500000
5.000000 -0.500000 1.325212 1.000000 -0.000000 0.000000 0.375000 0.687500
5.000000 -1.000000 1.325212 1.000000 -0.000000 0.000000 0.375000 0.750000
3.125000 -1.000000 2.325212 0.000000 -1.000000 0.000000 0.500000 0.796875
3.125000 -1.000000 2.825212 0.000000 -1.000000 0.000000 0.562500 0.796875
2.500000 -1.000000 2.825212 0.000000 -1.000000 0.000000 0.562500 0.812500
2.500000 -1.000000 2.325212 0.000000 -1.000000 0.000000 0.500000 0.812500
3.125000 -1.000000 3.325212 0.000000 -1.000000 0.000000 0.625000 0.796875
2.500000 -1.000000 3.325212 0.000000 -1.000000 0.000000 0.625000 0.812500
0.625000 -1.000000 1.325212 0.000000 -1.000000 0.000000 0.375000 0.859375
0.000000 -1.000000 1.325212 0.000000 -1.000000 0.000000 0.375000 0.875000
3.125000 -1.000000 1.325212 0.000000 -1.000000 0.000000 0.375000 0.796875
3.125000 -1.000000 1.825212 0.000000 -1.000000 0.000000 0.437500 0.796875
2.500000 -1.000000 1.825212 0.000000 -1.000000 0.000000 0.437500 0.812500
2.500000 -1.000000 1.325212 0.000000 -1.000000 0.000000 0.375000 0.812500
-4.375000 -1.000000 1.325212 0.000000 -1.000000 0.000000 0.375000 0.984375
-5.000000 -1.000000 1.325212 0.000000 -1.000000 0.000000 0.375000 1.000000
-1.875000 -1.000000 1.325212 0.000000 -1.000000 0.000000 0.375000 0.921875
-1.875000 -1.000000 1.825212 0.000000 -1.000000 0.000000 0.437500 0.921875
-2.500000 -1.000000 1.825212 0.000000 -1.000000 0.000000 0.437500 0.937500
-2.500000 -1.000000 1.325212 0.000000 -1.000000 0.000000 0.375000 0.937500
-1.875000 -1.000000 2.325212 0.000000 -1.000000 0.000000 0.500000 0.921875
-2.500000 -1.000000 2.325212 0.000000 -1.000000 0.000000 0.500000 0.937500
1.875000 0.500000 1.325212 0.000000 0.000000 -1.000000 0.296875 0.562500
2.500000 0.500000 1.325212 0.000000 0.000000 -1.000000 0.312500 0.562500
2.500000 0.000000 1.325212 0.000000 0.000000 -1.000000 0.312500 0.625000
1.875000 0.000000 1.325212 0.000000 0.000000 -1.000000 0.296875 0.625000
1.875000 1.000000 1.325212 0.000000 0.000000 -1.000000 0.296875 0.500000
2.500000 1.000000 1.325212 0.000000 0.000000 -1.000000 0.312500 0.500000
4.375000 1.000000 1.325212 0.000000 0.000000 -1.000000 0.359375 0.500000
5.000000 1.000000 1.325212 0.000000 0.000000 -1.000000 0.375000 0.500000
-3.125000 0.500000 1.325212 0.000000 0.000000 -1.000000 0.171875 0.562500
-2.500000 0.500000 1.325212 0.000000 0.000000 -1.000000 0.187500 0.562500
-2.500000 0.000000 1.325212 0.000000 0.000000 -1.000000 0.187500 0.625000
-3.125000 0.000000 1.325212 0.000000 0.000000 -1.000000 0.171875 0.625000
-3.125000 1.000000 1.325212 0.000000 0.000000 -1.000000 0.171875 0.500000
-2.500000 1.000000 1.325212 0.000000 0.000000 -1.000000 0.187500 0.500000
-0.625000 1.000000 1.325212 0.000000 0.000000 -1.000000 0.234375 0.500000
0.000000 1.000000 1.325212 0.000000 0.000000 -1.000000 0.250000 0.500000
-3.125000 -0.500000 1.325212 0.000000 0.000000 -1.000000 0.171875 0.687500
-2.500000 -0.500000 1.325212 0.000000 0.000000 -1.000000 0.187500 0.687500
-2.500000 -1.000000 1.325212 0.000000 0.000000 -1.000000 0.187500 0.750000
-3.125000 -1.000000 1.325212 0.000000 0.000000 -1.000000 0.171875 0.750000
-1.875000 0.500000 3.325212 0.000000 -0.000000 1.000000 0.796875 0.562500
-2.500000 0.500000 3.325212 0.000000 -0.000000 1.000000 0.812500 0.562500
-2.500000 0.000000 3.325212 0.000000 -0.000000 1.000000 0.812500 0.625000
-1.875000 0.000000 3.325212 0.000000 -0.000000 1.000000 0.796875 0.625000
-1.875000 1.000000 3.325212 0.000000 -0.000000 1.000000 0.796875 0.500000
-2.500000 1.000000 3.325212 0.000000 -0.000000 1.000000 0.812500 0.500000
-4.375000 1.000000 3.325212 0.000000 -0.000000 1.000000 0.859375 0.500000
-5.000000 1.000000 3.325212 0.000000 -0.000000 1.000000 0.875000 0.500000
3.125000 0.500000 3.325212 0.000000 -0.000000 1.000000 0.671875 0.562500
2.500000 0.500000 3.325212 0.000000 -0.000000 1.000000 0.687500 0.562500
2.500000 0.000000 3.325212 0.000000 -0.000000 1.000000 0.687500 0.625000
3.125000 0.000000 3.325212 0.000000 -0.000000 1.000000 0.671875 0.625000
3.125000 1.000000 3.325212 0.000000 -0.000000 1.000000 0.671875 0.500000
2.500000 1.000000 3.325212 0.000000 -0.000000 1.000000 0.687500 0.500000
0.625000 1.000000 3.325212 0.000000 -0.000000 1.000000 0.734375 0.500000
0.000000 1.000000 3.325212 0.000000 -0.000000 1.000000 0.750000 0.500000
3.125000 -0.500000 3.325212 0.000000 -0.000000 1.000000 0.671875 0.687500
2.500000 -0.500000 3.325212 0.000000 -0.000000 1.000000 0.687500 0.687500
2.500000 -1.000000 3.325212 0.000000 -0.000000 1.000000 0.687500 0.750000
3.125000 -1.000000 3.325212 0.000000 -0.000000 1.000000 0.671875 0.750000
-1.875000 -0.500000 3.325212 0.000000 -0.000000 1.000000 0.796875 0.687500
-2.500000 -0.500000 3.325212 0.000000 -0.000000 1.000000 0.812500 0.687500
-2.500000 -1.000000 3.325212 0.000000 -0.000000 1.000000 0.812500 0.750000
-1.875000 -1.000000 3.325212 0.000000 -0.000000 1.000000 0.796875 0.750000
1.875000 -0.500000 1.325212 0.000000 0.000000 -1.000000 0.296875 0.687500
2.500000 -0.500000 1.325212 0.000000 0.000000 -1.000000 0.312500 0.687500
2.500000 -1.000000 1.325212 0.000000 0.000000 -1.000000 0.312500 0.750000
1.875000 -1.000000 1.325212 0.000000 0.000000 -1.000000 0.296875 0.750000
-1.875000 -1.000000 2.825212 0.000000 -1.000000 0.000000 0.562500 0.921875
-2.500000 -1.000000 2.825212 0.000000 -1.000000 0.000000 0.562500 0.937500
-1.875000 -1.000000 3.325212 0.000000 -1.000000 0.000000 0.625000 0.921875
-2.500000 -1.000000 3.325212 0.000000 -1.000000 0.000000 0.625000 0.937500
1.875000 1.000000 2.825212 0.000000 1.000000 0.000000 0.562500 0.421875
2.500000 1.000000 2.825212 0.000000 1.000000 0.000000 0.562500 0.437500
1.875000 1.000000 3.325212 0.000000 1.000000 0.000000 0.625000 0.421875
2.500000 1.000000 3.325212 0.000000 1.000000 0.000000 0.625000 0.437500
-3.125000 -1.000000 2.325212 0.000000 -1.000000 0.000000 0.500000 0.953125
-3.125000 -1.000000 2.825212 0.000000 -1.000000 0.000000 0.562500 0.953125
-3.750000 -1.000000 2.825212 0.000000 -1.000000 0.000000 0.562500 0.968750
-3.750000 -1.000000 2.325212 0.000000 -1.000000 0.000000 0.500000 0.968750
-3.125000 0.000000 3.325212 0.000000 -0.000000 1.000000 0.828125 0.625000
-3.750000 0.000000 3.325212 0.000000 -0.000000 1.000000 0.843750 0.625000
-3.750000 -0.500000 3.325212 0.000000 -0.000000 1.000000 0.843750 0.687500
-3.125000 -0.500000 3.325212 0.000000 -0.000000 1.000000 0.828125 0.687500
-3.125000 1.000000 3.325212 0.000000 -0.000000 1.000000 0.828125 0.500000
-3.750000 1.000000 3.325212 0.000000 -0.000000 1.000000 0.843750 0.500000
-3.750000 0.500000 3.325212 0.000000 -0.000000 1.000000 0.843750 0.562500
-3.125000 0.500000 3.325212 0.000000 -0.000000 1.000000 0.828125 0.562500
-4.375000 0.000000 1.325212 0.000000 0.000000 -1.000000 0.140625 0.625000
-3.750000 0.000000 1.325212 0.000000 0.000000 -1.000000 0.156250 0.625000
-3.750000 -0.500000 1.325212 0.000000 0.000000 -1.000000 0.156250 0.687500
-4.375000 -0.500000 1.325212 0.000000 0.000000 -1.000000 0.140625 0.687500
-3.750000 -1.000000 1.325212 0.000000 0.000000 -1.000000 0.156250 0.750000
-4.375000 -1.000000 1.325212 0.000000 0.000000 -1.000000 0.140625 0.750000
-4.375000 1.000000 1.325212 0.000000 0.000000 -1.000000 0.140625 0.500000
-3.750000 1.000000 1.325212 0.000000 0.000000 -1.000000 0.156250 0.500000
-3.750000 0.500000 1.325212 0.000000 0.000000 -1.000000 0.156250 0.562500
-4.375000 0.500000 1.325212 0.000000 0.000000 -1.000000 0.140625 0.562500
-3.125000 -1.000000 1.325212 0.000000 -1.000000 0.000000 0.375000 0.953125
-3.125000 -1.000000 1.825212 0.000000 -1.000000 0.000000 0.437500 0.953125
-3.750000 -1.000000 1.825212 0.000000 -1.000000 0.000000 0.437500 0.968750
-3.750000 -1.000000 1.325212 0.000000 -1.000000 0.000000 0.375000 0.968750
-4.375000 1.000000 1.825212 0.000000 1.000000 0.000000 0.437500 0.265625
-4.375000 1.000000 2.325212 0.000000 1.000000 0.000000 0.500000 0.265625
-3.750000 1.000000 2.325212 0.000000 1.000000 0.000000 0.500000 0.281250
-3.750000 1.000000 1.825212 0.000000 1.000000 0.000000 0.437500 0.281250
-4.375000 1.000000 1.325212 0.000000 1.000000 0.000000 0.375000 0.265625
-3.750000 1.000000 1.325212 0.000000 1.000000 0.000000 0.375000 0.281250
-4.375000 1.000000 2.825212 0.000000 1.000000 0.000000 0.562500 0.265625
-4.375000 1.000000 3.325212 0.000000 1.000000 0.000000 0.625000 0.265625
-3.750000 1.000000 3.325212 0.000000 1.000000 0.000000 0.625000 0.281250
-3.750000 1.000000 2.825212 0.000000 1.000000 0.000000 0.562500 0.281250
-3.750000 -1.000000 3.325212 0.000000 -0.000000 1.000000 0.843750 0.750000
-3.125000 -1.000000 3.325212 0.000000 -0.000000 1.000000 0.828125 0.750000
-3.125000 -1.000000 3.325212 0.000000 -1.000000 0.000000 0.625000 0.953125
-3.750000 -1.000000 3.325212 0.000000 -1.000000 0.000000 0.625000 0.968750
-0.625000 -1.000000 2.825212 0.000000 -1.000000 0.000000 0.562500 0.890625
-0.625000 -1.000000 3.325212 0.000000 -1.000000 0.000000 0.625000 0.890625
-1.250000 -1.000000 3.325212 0.000000 -1.000000 0.000000 0.625000 0.906250
-1.250000 -1.000000 2.825212 0.000000 -1.000000 0.000000 0.562500 0.906250
-0.625000 -1.000000 2.325212 0.000000 -1.000000 0.000000 0.500000 0.890625
-1.250000 -1.000000 2.325212 0.000000 -1.000000 0.000000 0.500000 0.906250
-0.625000 0.000000 3.325212 0.000000 -0.000000 1.000000 0.765625 0.625000
-1.250000 0.000000 3.325212 0.000000 -0.000000 1.000000 0.781250 0.625000
-1.250000 -0.500000 3.325212 0.000000 -0.000000 1.000000 0.781250 0.687500
-0.625000 -0.500000 3.325212 0.000000 -0.000000 1.000000 0.765625 0.687500
-1.250000 -1.000000 3.325212 0.000000 -0.000000 1.000000 0.781250 0.750000
-0.625000 -1.000000 3.325212 0.000000 -0.000000 1.000000 0.765625 0.750000
-0.625000 1.000000 3.325212 0.000000 -0.000000 1.000000 0.765625 0.500000
-1.250000 1.000000 3.325212 0.000000 -0.000000 1.000000 0.781250 0.500000
-1.250000 0.500000 3.325212 0.000000 -0.000000 1.000000 0.781250 0.562500
-0.625000 0.500000 3.325212 0.000000 -0.000000 1.000000 0.765625 0.562500
-1.875000 0.000000 1.325212 0.000000 0.000000 -1.000000 0.203125 0.625000
-1.250000 0.000000 1.325212 0.000000 0.000000 -1.000000 0.218750 0.625000
-1.250000 -0.500000 1.325212 0.000000 0.000000 -1.000000 0.218750 0.687500
-1.875000 -0.500000 1.325212 0.000000 0.000000 -1.000000 0.203125 0.687500
-1.875000 1.000000 1.325212 0.000000 0.000000 -1.000000 0.203125 0.500000
-1.250000 1.000000 1.325212 0.000000 0.000000 -1.000000 0.218750 0.500000
-1.250000 0.500000 1.325212 0.000000 0.000000 -1.000000 0.218750 0.562500
-1.875000 0.500000 1.325212 0.000000 0.000000 -1.000000 0.203125 0.562500
-0.625000 -1.000000 1.825212 0.000000 -1.000000 0.000000 0.437500 0.890625
-1.250000 -1.000000 1.825212 0.000000 -1.000000 0.000000 0.437500 0.906250
-0.625000 -1.000000 1.325212 0.000000 -1.000000 0.000000 0.375000 0.890625
-1.250000 -1.000000 1.325212 0.000000 -1.000000 0.000000 0.375000 0.906250
-1.875000 1.000000 1.325212 0.000000 1.000000 0.000000 0.375000 0.328125
-1.875000 1.000000 1.825212 0.000000 1.000000 0.000000 0.437500 0.328125
-1.250000 1.000000 1.825212 0.000000 1.000000 0.000000 0.437500 0.343750
-1.250000 1.000000 1.325212 0.000000 1.000000 0.000000 0.375000 0.343750
-1.875000 1.000000 2.325212 0.000000 1.000000 0.000000 0.500000 0.328125
-1.875000 1.000000 2.825212 0.000000 1.000000 0.000000 0.562500 0.328125
-1.250000 1.000000 2.825212 0.000000 1.000000 0.000000 0.562500 0.343750
-1.250000 1.000000 2.325212 0.000000 1.000000 0.000000 0.500000 0.343750
-1.875000 1.000000 3.325212 0.000000 1.000000 0.000000 0.625000 0.328125
-1.250000 1.000000 3.325212 0.000000 1.000000 0.000000 0.625000 0.343750
-1.250000 -1.000000 1.325212 0.000000 0.000000 -1.000000 0.218750 0.750000
-1.875000 -1.000000 1.325212 0.000000 0.000000 -1.000000 0.203125 0.750000
0.625000 1.000000 2.825212 0.000000 1.000000 0.000000 0.562500 0.390625
0.625000 1.000000 3.325212 0.000000 1.000000 0.000000 0.625000 0.390625
1.250000 1.000000 3.325212 0.000000 1.000000 0.000000 0.625000 0.406250
1.250000 1.000000 2.825212 0.000000 1.000000 0.000000 0.562500 0.406250
0.625000 1.000000 2.325212 0.000000 1.000000 0.000000 0.500000 0.390625
1.250000 1.000000 2.325212 0.000000 1.000000 0.000000 0.500000 0.406250
0.625000 0.000000 1.325212 0.000000 0.000000 -1.000000 0.265625 0.625000
1.250000 0.000000 1.325212 0.000000 0.000000 -1.000000 0.281250 0.625000
1.250000 -0.500000 1.325212 0.000000 0.000000 -1.000000 0.281250 0.687500
0.625000 -0.500000 1.325212 0.000000 0.000000 -1.000000 0.265625 0.687500
1.250000 -1.000000 1.325212 0.000000 0.000000 -1.000000 0.281250 0.750000
0.625000 -1.000000 1.325212 0.000000 0.000000 -1.000000 0.265625 0.750000
1.875000 0.000000 3.325212 0.000000 -0.000000 1.000000 0.703125 0.625000
1.250000 0.000000 3.325212 0.000000 -0.000000 1.000000 0.718750 0.625000
1.250000 -0.500000 3.325212 0.000000 -0.000000 1.000000 0.718750 0.687500
1.875000 -0.500000 3.325212 0.000000 -0.000000 1.000000 0.703125 0.687500
1.875000 1.000000 3.325212 0.000000 -0.000000 1.000000 0.703125 0.500000
1.250000 1.000000 3.325212 0.000000 -0.000000 1.000000 0.718750 0.500000
1.250000 0.500000 3.325212 0.000000 -0.000000 1.000000 0.718750 0.562500
1.875000 0.500000 3.325212 0.000000 -0.000000 1.000000 0.703125 0.562500
0.625000 1.000000 1.325212 0.000000 0.000000 -1.000000 0.265625 0.500000
1.250000 1.000000 1.325212 0.000000 0.000000 -1.000000 0.281250 0.500000
1.250000 0.500000 1.325212 0.000000 0.000000 -1.000000 0.281250 0.562500
0.625000 0.500000 1.325212 0.000000 0.000000 -1.000000 0.265625 0.562500
1.875000 -1.000000 1.325212 0.000000 -1.000000 0.000000 0.375000 0.828125
1.875000 -1.000000 1.825212 0.000000 -1.000000 0.000000 0.437500 0.828125
1.250000 -1.000000 1.825212 0.000000 -1.000000 0.000000 0.437500 0.843750
1.250000 -1.000000 1.325212 0.000000 -1.000000 0.000000 0.375000 0.843750
1.875000 -1.000000 2.325212 0.000000 -1.000000 0.000000 0.500000 0.828125
1.875000 -1.000000 2.825212 0.000000 -1.000000 0.000000 0.562500 0.828125
1.250000 -1.000000 2.825212 0.000000 -1.000000 0.000000 0.562500 0.843750
1.250000 -1.000000 2.325212 0.000000 -1.000000 0.000000 0.500000 0.843750
0.625000 1.000000 1.825212 0.000000 1.000000 0.000000 0.437500 0.390625
1.250000 1.000000 1.825212 0.000000 1.000000 0.000000 0.437500 0.406250
0.625000 1.000000 1.325212 0.000000 1.000000 0.000000 0.375000 0.390625
1.250000 1.000000 1.325212 0.000000 1.000000 0.000000 0.375000 0.406250
1.875000 -1.000000 3.325212 0.000000 -1.000000 0.000000 0.625000 0.828125
1.250000 -1.000000 3.325212 0.000000 -1.000000 0.000000 0.625000 0.843750
1.250000 -1.000000 3.325212 0.000000 -0.000000 1.000000 0.718750 0.750000
1.875000 -1.000000 3.325212 0.000000 -0.000000 1.000000 0.703125 0.750000
3.125000 1.000000 2.325212 0.000000 1.000000 0.000000 0.500000 0.453125
3.125000 1.000000 2.825212 0.000000 1.000000 0.000000 0.562500 0.453125
3.750000 1.000000 2.825212 0.000000 1.000000 0.000000 0.562500 0.468750
3.750000 1.000000 2.325212 0.000000 1.000000 0.000000 0.500000 0.468750
3.125000 0.000000 1.325212 0.000000 0.000000 -1.000000 0.328125 0.625000
3.750000 0.000000 1.325212 0.000000 0.000000 -1.000000 0.343750 0.625000
3.750000 -0.500000 1.325212 0.000000 0.000000 -1.000000 0.343750 0.687500
3.125000 -0.500000 1.325212 0.000000 0.000000 -1.000000 0.328125 0.687500
4.375000 0.000000 3.325212 0.000000 -0.000000 1.000000 0.640625 0.625000
3.750000 0.000000 3.325212 0.000000 -0.000000 1.000000 0.656250 0.625000
3.750000 -0.500000 3.325212 0.000000 -0.000000 1.000000 0.656250 0.687500
4.375000 -0.500000 3.325212 0.000000 -0.000000 1.000000 0.640625 0.687500
3.750000 -1.000000 3.325212 0.000000 -0.000000 1.000000 0.656250 0.750000
4.375000 -1.000000 3.325212 0.000000 -0.000000 1.000000 0.640625 0.750000
4.375000 1.000000 3.325212 0.000000 -0.000000 1.000000 0.640625 0.500000
3.750000 1.000000 3.325212 0.000000 -0.000000 1.000000 0.656250 0.500000
3.750000 0.500000 3.325212 0.000000 -0.000000 1.000000 0.656250 0.562500
4.375000 0.500000 3.325212 0.000000 -0.000000 1.000000 0.640625 0.562500
3.125000 1.000000 1.325212 0.000000 0.000000 -1.000000 0.328125 0.500000
3.750000 1.000000 1.325212 0.000000 0.000000 -1.000000 0.343750 0.500000
3.750000 0.500000 1.325212 0.000000 0.000000 -1.000000 0.343750 0.562500
3.125000 0.500000 1.325212 0.000000 0.000000 -1.000000 0.328125 0.562500
4.375000 -1.000000 1.825212 0.000000 -1.000000 0.000000 0.437500 0.765625
4.375000 -1.000000 2.325212 0.000000 -1.000000 0.000000 0.500000 0.765625
3.750000 -1.000000 2.325212 0.000000 -1.000000 0.000000 0.500000 0.781250
3.750000 -1.000000 1.825212 0.000000 -1.000000 0.000000 0.437500 0.781250
4.375000 -1.000000 1.325212 0.000000 -1.000000 0.000000 0.375000 0.765625
3.750000 -1.000000 1.325212 0.000000 -1.000000 0.000000 0.375000 0.781250
4.375000 -1.000000 2.825212 0.000000 -1.000000 0.000000 0.562500 0.765625
4.375000 -1.000000 3.325212 0.000000 -1.000000 0.000000 0.625000 0.765625
3.750000 -1.000000 3.325212 0.000000 -1.000000 0.000000 0.625000 0.781250
3.750000 -1.000000 2.825212 0.000000 -1.000000 0.000000 0.562500 0.781250
3.125000 1.000000 1.325212 0.000000 1.000000 0.000000 0.375000 0.453125
3.125000 1.000000 1.825212 0.000000 1.000000 0.000000 0.437500 0.453125
3.750000 1.000000 1.825212 0.000000 1.000000 0.000000 0.437500 0.468750
3.750000 1.000000 1.325212 0.000000 1.000000 0.000000 0.375000 0.468750
3.750000 -1.000000 1.325212 0.000000 0.000000 -1.000000 0.343750 0.750000
3.125000 -1.000000 1.325212 0.000000 0.000000 -1.000000 0.328125 0.750000
3.125000 1.000000 3.325212 0.000000 1.000000 0.000000 0.625000 0.453125
3.750000 1.000000 3.325212 0.000000 1.000000 0.000000 0.625000 0.468750
5.000000 -1.000000 2.325212 0.000000 -1.000000 0.000000 0.500000 0.750000
5.000000 -1.000000 2.825212 0.000000 -1.000000 0.000000 0.562500 0.750000
5.000000 -1.000000 3.325212 0.000000 -1.000000 0.000000 0.625000 0.750000
5.000000 -1.000000 1.325212 0.000000 -1.000000 0.000000 0.375000 0.750000
5.000000 -1.000000 1.825212 0.000000 -1.000000 0.000000 0.437500 0.750000
5.000000 0.500000 3.325212 0.000000 -0.000000 1.000000 0.625000 0.562500
5.000000 0.000000 3.325212 0.000000 -0.000000 1.000000 0.625000 0.625000
5.000000 1.000000 3.325212 0.000000 -0.000000 1.000000 0.625000 0.500000
5.000000 -0.500000 3.325212 0.000000 -0.000000 1.000000 0.625000 0.687500
5.000000 -1.000000 3.325212 0.000000 -0.000000 1.000000 0.625000 0.750000
-5.000000 1.000000 2.325212 0.000000 1.000000 0.000000 0.500000 0.250000
-5.000000 1.000000 2.825212 0.000000 1.000000 0.000000 0.562500 0.250000
-5.000000 1.000000 3.325212 0.000000 1.000000 0.000000 0.625000 0.250000
-5.000000 1.000000 1.325212 0.000000 1.000000 0.000000 0.375000 0.250000
-5.000000 1.000000 1.825212 0.000000 1.000000 0.000000 0.437500 0.250000
-5.000000 0.500000 1.325212 0.000000 0.000000 -1.000000 0.125000 0.562500
-5.000000 0.000000 1.325212 0.000000 0.000000 -1.000000 0.125000 0.625000
-5.000000 1.000000 1.325212 0.000000 0.000000 -1.000000 0.125000 0.500000
-5.000000 -0.500000 1.325212 0.000000 0.000000 -1.000000 0.125000 0.687500
-5.000000 -1.000000 1.325212 0.000000 0.000000 -1.000000 0.125000 0.750000
4 0 1 2 3
4 4 5 6 7
4 8 9 10 11
4 12 13 14 15
4 16 17 18 19
4 20 21 22 23
4 24 25 26 27
4 28 29 30 31
4 32 33 34 35
4 36 37 38 39
4 40 41 42 43
4 44 45 46 47
4 48 49 50 51
4 52 53 54 55
4 56 57 58 59
4 60 61 62 63
4 64 65 66 67
4 68 69 70 71
4 72 73 74 75
4 76 77 78 79
4 80 81 82 83
4 84 85 86 87
4 88 89 90 91
4 92 93 94 95
4 89 92 95 90
4 96 97 92 89
4 97 98 93 92
4 99 88 91 100
4 101 102 88 99
4 102 96 89 88
4 103 84 87 104
4 100 91 84 103
4 91 90 85 84
4 77 80 83 78
4 105 106 107 108
4 106 109 110 107
4 111 76 79 112
4 113 114 115 116
4 114 105 108 115
4 117 72 75 118
4 119 120 121 122
4 120 123 124 121
4 65 68 71 66
4 125 126 68 65
4 126 127 69 68
4 128 64 67 129
4 130 131 64 128
4 131 125 65 64
4 132 60 63 133
4 129 67 60 132
4 67 66 61 60
4 53 56 59 54
4 134 135 136 137
4 135 138 139 136
4 140 52 55 141
4 142 143 144 145
4 143 134 137 144
4 146 48 51 147
4 148 149 150 151
4 149 152 153 150
4 154 155 156 157
4 158 159 155 154
4 160 161 45 44
4 162 163 164 165
4 166 167 163 162
4 168 169 41 40
4 170 171 172 173
4 165 164 171 170
4 43 42 37 36
4 174 175 176 177
4 178 179 175 174
4 180 181 33 32
4 182 183 184 185
4 186 187 183 182
4 188 189 29 28
4 190 191 192 193
4 185 184 191 190
4 31 30 25 24
4 194 195 196 197
4 177 176 195 194
4 35 34 21 20
4 198 199 200 201
4 157 156 199 198
4 47 46 17 16
4 49 12 15 50
4 152 202 203 153
4 202 204 205 203
4 61 8 11 62
4 66 71 8 61
4 71 70 9 8
4 73 4 7 74
4 123 206 207 124
4 206 208 209 207
4 85 0 3 86
4 90 95 0 85
4 95 94 1 0
4 210 211 212 213
4 214 215 216 217
4 218 219 220 221
4 222 223 224 225
4 225 224 226 227
4 228 229 230 231
4 231 230 223 222
4 232 233 234 235
4 236 237 238 239
4 240 236 239 241
4 242 243 244 245
4 237 242 245 238
4 233 210 213 234
4 221 220 215 214
4 217 216 246 247
4 211 248 249 212
4 250 251 252 253
4 254 250 253 255
4 256 257 258 259
4 259 258 260 261
4 262 263 264 265
4 265 264 257 256
4 266 267 268 269
4 270 271 272 273
4 274 254 255 275
4 276 274 275 277
4 278 279 280 281
4 282 283 284 285
4 283 286 287 284
4 279 282 285 280
4 273 272 267 266
4 269 268 288 289
4 290 291 292 293
4 294 290 293 295
4 296 297 298 299
4 299 298 300 301
4 302 303 304 305
4 306 307 308 309
4 310 311 312 313
4 313 312 297 296
4 314 315 316 317
4 318 319 320 321
4 322 294 295 323
4 324 322 323 325
4 319 326 327 320
4 315 318 321 316
4 309 308 303 302
4 305 304 328 329
4 330 331 332 333
4 334 335 336 337
4 338 339 340 341
4 341 340 342 343
4 344 345 346 347
4 347 346 339 338
4 348 349 350 351
4 352 353 354 355
4 356 352 355 357
4 358 359 360 361
4 353 358 361 354
4 362 363 364 365
4 363 330 333 364
4 351 350 335 334
4 337 336 366 367
4 331 368 369 332
4 370 371 358 353
4 371 372 359 358
4 373 374 352 356
4 374 370 353 352
4 375 347 338 376
4 377 344 347 375
4 378 341 343 379
4 376 338 341 378
4 333 332 4 73
4 335 47 16 336
4 349 160 44 350
4 365 364 72 117
4 364 333 73 72
4 350 44 47 335
4 336 16 19 366
4 332 369 5 4
4 207 209 368 331
4 199 337 367 200
4 155 351 334 156
4 121 124 330 363
4 122 121 363 362
4 159 348 351 155
4 156 334 337 199
4 124 207 331 330
4 339 185 190 340
4 340 190 193 342
4 345 186 182 346
4 346 182 185 339
4 355 354 134 143
4 357 355 143 142
4 361 360 138 135
4 354 361 135 134
4 191 305 329 192
4 183 309 302 184
4 144 137 318 315
4 136 139 326 319
4 137 136 319 318
4 145 144 315 314
4 187 306 309 183
4 184 302 305 191
4 293 292 208 206
4 295 293 206 123
4 297 157 198 298
4 298 198 201 300
4 311 158 154 312
4 312 154 157 297
4 323 295 123 120
4 325 323 120 119
4 112 79 322 324
4 79 78 294 322
4 41 313 296 42
4 169 310 313 41
4 37 299 301 38
4 42 296 299 37
4 78 83 290 294
4 83 82 291 290
4 303 31 24 304
4 307 188 28 308
4 317 316 52 140
4 321 320 56 53
4 320 327 57 56
4 316 321 53 52
4 308 28 31 303
4 304 24 27 328
4 141 55 274 276
4 55 54 254 274
4 29 265 256 30
4 189 262 265 29
4 25 259 261 26
4 30 256 259 25
4 54 59 250 254
4 59 58 251 250
4 267 43 36 268
4 271 168 40 272
4 281 280 76 111
4 285 284 80 77
4 284 287 81 80
4 280 285 77 76
4 272 40 43 267
4 268 36 39 288
4 171 269 289 172
4 163 273 266 164
4 115 108 282 279
4 107 110 286 283
4 108 107 283 282
4 116 115 279 278
4 167 270 273 163
4 164 266 269 171
4 253 252 204 202
4 255 253 202 152
4 257 177 194 258
4 258 194 197 260
4 263 178 174 264
4 264 174 177 257
4 275 255 152 149
4 277 275 149 148
4 203 205 248 211
4 195 217 247 196
4 175 221 214 176
4 150 153 210 233
4 151 150 233 232
4 179 218 221 175
4 176 214 217 195
4 153 203 211 210
4 223 165 170 224
4 224 170 173 226
4 229 166 162 230
4 230 162 165 223
4 239 238 105 114
4 241 239 114 113
4 245 244 109 106
4 238 245 106 105
4 380 381 242 237
4 381 382 243 242
4 383 384 236 240
4 384 380 237 236
4 385 231 222 386
4 387 228 231 385
4 388 225 227 389
4 386 222 225 388
4 213 212 12 49
4 215 35 20 216
4 219 180 32 220
4 235 234 48 146
4 234 213 49 48
4 220 32 35 215
4 216 20 23 246
4 212 249 13 12
